<mxfile host="65bd71144e">
    <diagram id="Cca6cfOev7vaBRQpWxT0" name="Page-1">
        <mxGraphModel dx="2141" dy="2211" grid="1" gridSize="10" guides="1" tooltips="1" connect="1" arrows="1" fold="1" page="1" pageScale="1" pageWidth="850" pageHeight="1100" math="0" shadow="0">
            <root>
                <mxCell id="0"/>
                <mxCell id="1" parent="0"/>
                <mxCell id="20" value="" style="rounded=0;whiteSpace=wrap;html=1;fillColor=#f0a30a;fontColor=#000000;strokeColor=#BD7000;opacity=30;" vertex="1" parent="1">
                    <mxGeometry x="140" y="140" width="260" height="200" as="geometry"/>
                </mxCell>
                <mxCell id="35" value="" style="rounded=0;whiteSpace=wrap;html=1;fillColor=#647687;strokeColor=#314354;opacity=30;fontColor=#ffffff;" vertex="1" parent="1">
                    <mxGeometry x="610.0899999999999" y="140" width="260" height="200" as="geometry"/>
                </mxCell>
                <mxCell id="2" value="" style="shape=wire;edgeStyle=orthogonalEdgeStyle;orthogonalLoop=1;jettySize=auto;html=1;sourcePerimeterSpacing=0;targetPerimeterSpacing=0;endArrow=none;curved=0;rounded=0;strokeColor=#009900;dashed=1;fillColor=#ffff00;dashPattern=12 12;fixDash=1;startSize=6;endSize=6;" edge="1" parent="1">
                    <mxGeometry width="100" relative="1" as="geometry">
                        <mxPoint x="410" y="200" as="sourcePoint"/>
                        <mxPoint x="410" y="280" as="targetPoint"/>
                    </mxGeometry>
                </mxCell>
                <mxCell id="5" value="" style="endArrow=none;html=1;shape=link;width=18;shadow=0;" edge="1" parent="1">
                    <mxGeometry width="50" height="50" relative="1" as="geometry">
                        <mxPoint x="410" y="200" as="sourcePoint"/>
                        <mxPoint x="320" y="130" as="targetPoint"/>
                        <Array as="points">
                            <mxPoint x="410" y="130"/>
                        </Array>
                    </mxGeometry>
                </mxCell>
                <mxCell id="6" value="" style="endArrow=none;html=1;shape=link;width=18;" edge="1" parent="1">
                    <mxGeometry width="50" height="50" relative="1" as="geometry">
                        <mxPoint x="230" y="130" as="sourcePoint"/>
                        <mxPoint x="410" y="280" as="targetPoint"/>
                        <Array as="points">
                            <mxPoint x="130" y="130"/>
                            <mxPoint x="130" y="350"/>
                            <mxPoint x="410" y="350"/>
                        </Array>
                    </mxGeometry>
                </mxCell>
                <mxCell id="7" value="" style="shape=wire;edgeStyle=orthogonalEdgeStyle;orthogonalLoop=1;jettySize=auto;html=1;sourcePerimeterSpacing=0;targetPerimeterSpacing=0;endArrow=none;curved=0;rounded=0;strokeColor=#009900;dashed=1;fillColor=#ffff00;dashPattern=12 12;fixDash=1;startSize=6;endSize=6;" edge="1" parent="1">
                    <mxGeometry width="100" relative="1" as="geometry">
                        <mxPoint x="320" y="130" as="sourcePoint"/>
                        <mxPoint x="230" y="130" as="targetPoint"/>
                    </mxGeometry>
                </mxCell>
                <mxCell id="13" value="" style="endArrow=none;html=1;shape=link;width=18;shadow=0;" edge="1" parent="1">
                    <mxGeometry width="50" height="50" relative="1" as="geometry">
                        <mxPoint x="360" y="120" as="sourcePoint"/>
                        <mxPoint x="200" y="120" as="targetPoint"/>
                        <Array as="points">
                            <mxPoint x="360" y="-60"/>
                            <mxPoint x="200" y="-60"/>
                        </Array>
                    </mxGeometry>
                </mxCell>
                <mxCell id="14" value="" style="endArrow=none;html=1;shadow=0;sketch=0;" edge="1" parent="1">
                    <mxGeometry width="50" height="50" relative="1" as="geometry">
                        <mxPoint x="230" y="140" as="sourcePoint"/>
                        <mxPoint x="230" y="120" as="targetPoint"/>
                    </mxGeometry>
                </mxCell>
                <mxCell id="15" value="" style="endArrow=none;html=1;shadow=0;sketch=0;" edge="1" parent="1">
                    <mxGeometry width="50" height="50" relative="1" as="geometry">
                        <mxPoint x="320" y="140" as="sourcePoint"/>
                        <mxPoint x="320" y="120" as="targetPoint"/>
                    </mxGeometry>
                </mxCell>
                <mxCell id="16" value="" style="endArrow=none;html=1;shadow=0;sketch=0;" edge="1" parent="1">
                    <mxGeometry width="50" height="50" relative="1" as="geometry">
                        <mxPoint x="400" y="200" as="sourcePoint"/>
                        <mxPoint x="420" y="200" as="targetPoint"/>
                    </mxGeometry>
                </mxCell>
                <mxCell id="17" value="" style="endArrow=none;html=1;shadow=0;sketch=0;" edge="1" parent="1">
                    <mxGeometry width="50" height="50" relative="1" as="geometry">
                        <mxPoint x="400" y="280" as="sourcePoint"/>
                        <mxPoint x="420" y="280" as="targetPoint"/>
                    </mxGeometry>
                </mxCell>
                <mxCell id="19" value="" style="rounded=1;whiteSpace=wrap;html=1;" vertex="1" parent="1">
                    <mxGeometry x="270" y="210" width="30" height="60" as="geometry"/>
                </mxCell>
                <mxCell id="18" value="'" style="ellipse;whiteSpace=wrap;html=1;aspect=fixed;" vertex="1" parent="1">
                    <mxGeometry x="260" y="220" width="40" height="40" as="geometry"/>
                </mxCell>
                <mxCell id="21" value="" style="rounded=0;whiteSpace=wrap;html=1;fillColor=#647687;fontColor=#ffffff;strokeColor=#314354;opacity=30;" vertex="1" parent="1">
                    <mxGeometry x="210" y="-50" width="140" height="170" as="geometry"/>
                </mxCell>
                <mxCell id="23" value="" style="shape=xor;whiteSpace=wrap;html=1;rotation=-181;fillColor=#d0cee2;strokeColor=#56517e;" vertex="1" parent="1">
                    <mxGeometry y="-60" width="70" height="110" as="geometry"/>
                </mxCell>
                <mxCell id="24" value="" style="shape=wire;edgeStyle=orthogonalEdgeStyle;orthogonalLoop=1;jettySize=auto;html=1;sourcePerimeterSpacing=0;targetPerimeterSpacing=0;endArrow=none;curved=0;rounded=0;strokeColor=#009900;dashed=1;fillColor=#ffff00;dashPattern=12 12;fixDash=1;startSize=6;endSize=6;" edge="1" parent="1">
                    <mxGeometry width="100" relative="1" as="geometry">
                        <mxPoint x="880.0899999999999" y="200" as="sourcePoint"/>
                        <mxPoint x="880.0899999999999" y="280" as="targetPoint"/>
                    </mxGeometry>
                </mxCell>
                <mxCell id="25" value="" style="endArrow=none;html=1;shape=link;width=18;shadow=0;" edge="1" parent="1">
                    <mxGeometry width="50" height="50" relative="1" as="geometry">
                        <mxPoint x="880.0899999999999" y="200" as="sourcePoint"/>
                        <mxPoint x="790.0899999999999" y="130" as="targetPoint"/>
                        <Array as="points">
                            <mxPoint x="880.0899999999999" y="130"/>
                        </Array>
                    </mxGeometry>
                </mxCell>
                <mxCell id="26" value="" style="endArrow=none;html=1;shape=link;width=18;" edge="1" parent="1">
                    <mxGeometry width="50" height="50" relative="1" as="geometry">
                        <mxPoint x="700.0899999999999" y="130" as="sourcePoint"/>
                        <mxPoint x="880.0899999999999" y="280" as="targetPoint"/>
                        <Array as="points">
                            <mxPoint x="600.0899999999999" y="130"/>
                            <mxPoint x="600.0899999999999" y="350"/>
                            <mxPoint x="880.0899999999999" y="350"/>
                        </Array>
                    </mxGeometry>
                </mxCell>
                <mxCell id="27" value="" style="shape=wire;edgeStyle=orthogonalEdgeStyle;orthogonalLoop=1;jettySize=auto;html=1;sourcePerimeterSpacing=0;targetPerimeterSpacing=0;endArrow=none;curved=0;rounded=0;strokeColor=#009900;dashed=1;fillColor=#ffff00;dashPattern=12 12;fixDash=1;startSize=6;endSize=6;" edge="1" parent="1">
                    <mxGeometry width="100" relative="1" as="geometry">
                        <mxPoint x="790.0899999999999" y="130" as="sourcePoint"/>
                        <mxPoint x="700.0899999999999" y="130" as="targetPoint"/>
                    </mxGeometry>
                </mxCell>
                <mxCell id="28" value="" style="endArrow=none;html=1;shape=link;width=18;shadow=0;" edge="1" parent="1">
                    <mxGeometry width="50" height="50" relative="1" as="geometry">
                        <mxPoint x="830.0899999999999" y="120" as="sourcePoint"/>
                        <mxPoint x="670.0899999999999" y="120" as="targetPoint"/>
                        <Array as="points">
                            <mxPoint x="830.0899999999999" y="-60"/>
                            <mxPoint x="670.0899999999999" y="-60"/>
                        </Array>
                    </mxGeometry>
                </mxCell>
                <mxCell id="29" value="" style="endArrow=none;html=1;shadow=0;sketch=0;" edge="1" parent="1">
                    <mxGeometry width="50" height="50" relative="1" as="geometry">
                        <mxPoint x="700.0899999999999" y="140" as="sourcePoint"/>
                        <mxPoint x="700.0899999999999" y="120" as="targetPoint"/>
                    </mxGeometry>
                </mxCell>
                <mxCell id="30" value="" style="endArrow=none;html=1;shadow=0;sketch=0;" edge="1" parent="1">
                    <mxGeometry width="50" height="50" relative="1" as="geometry">
                        <mxPoint x="790.0899999999999" y="140" as="sourcePoint"/>
                        <mxPoint x="790.0899999999999" y="120" as="targetPoint"/>
                    </mxGeometry>
                </mxCell>
                <mxCell id="31" value="" style="endArrow=none;html=1;shadow=0;sketch=0;" edge="1" parent="1">
                    <mxGeometry width="50" height="50" relative="1" as="geometry">
                        <mxPoint x="870.0899999999999" y="200" as="sourcePoint"/>
                        <mxPoint x="890.0899999999999" y="200" as="targetPoint"/>
                    </mxGeometry>
                </mxCell>
                <mxCell id="32" value="" style="endArrow=none;html=1;shadow=0;sketch=0;" edge="1" parent="1">
                    <mxGeometry width="50" height="50" relative="1" as="geometry">
                        <mxPoint x="870.0899999999999" y="280" as="sourcePoint"/>
                        <mxPoint x="890.0899999999999" y="280" as="targetPoint"/>
                    </mxGeometry>
                </mxCell>
                <mxCell id="36" value="" style="rounded=0;whiteSpace=wrap;html=1;fillColor=#f0a30a;strokeColor=#BD7000;opacity=10;fontColor=#000000;" vertex="1" parent="1">
                    <mxGeometry x="680.0899999999999" y="-50" width="140" height="170" as="geometry"/>
                </mxCell>
                <mxCell id="37" value="" style="shape=xor;whiteSpace=wrap;html=1;rotation=-181;fillColor=#d0cee2;strokeColor=#56517e;" vertex="1" parent="1">
                    <mxGeometry x="509.83" width="60" height="90" as="geometry"/>
                </mxCell>
                <mxCell id="38" value="" style="group;rotation=90;" vertex="1" connectable="0" parent="1">
                    <mxGeometry x="730.0899999999999" y="10" width="40" height="60" as="geometry"/>
                </mxCell>
                <mxCell id="33" value="" style="rounded=1;whiteSpace=wrap;html=1;rotation=90;" vertex="1" parent="38">
                    <mxGeometry x="5" y="5" width="30" height="60" as="geometry"/>
                </mxCell>
                <mxCell id="34" value="" style="ellipse;whiteSpace=wrap;html=1;aspect=fixed;rotation=90;" vertex="1" parent="38">
                    <mxGeometry y="10" width="40" height="40" as="geometry"/>
                </mxCell>
                <mxCell id="39" value="" style="ellipse;whiteSpace=wrap;html=1;aspect=fixed;fillColor=#fad7ac;strokeColor=#b46504;" vertex="1" parent="1">
                    <mxGeometry x="470" y="-40" width="70" height="70" as="geometry"/>
                </mxCell>
                <mxCell id="41" value="" style="endArrow=none;html=1;shadow=0;sketch=0;exitX=0.5;exitY=0;exitDx=0;exitDy=0;fillColor=#fad7ac;strokeColor=#b46504;" edge="1" parent="1" source="39">
                    <mxGeometry width="50" height="50" relative="1" as="geometry">
                        <mxPoint x="539.7487373415292" y="-19.748737341529477" as="sourcePoint"/>
                        <mxPoint x="505" y="-70" as="targetPoint"/>
                    </mxGeometry>
                </mxCell>
                <mxCell id="42" value="" style="endArrow=none;html=1;shadow=0;sketch=0;" edge="1" parent="1">
                    <mxGeometry width="50" height="50" relative="1" as="geometry">
                        <mxPoint x="505" y="60" as="sourcePoint"/>
                        <mxPoint x="504.66" y="30" as="targetPoint"/>
                    </mxGeometry>
                </mxCell>
                <mxCell id="43" value="" style="endArrow=none;html=1;shadow=0;sketch=0;" edge="1" parent="1">
                    <mxGeometry width="50" height="50" relative="1" as="geometry">
                        <mxPoint x="460" y="40" as="sourcePoint"/>
                        <mxPoint x="480.25" y="19.75" as="targetPoint"/>
                    </mxGeometry>
                </mxCell>
                <mxCell id="44" value="" style="endArrow=none;html=1;shadow=0;sketch=0;fillColor=#fad7ac;strokeColor=#b46504;" edge="1" parent="1">
                    <mxGeometry width="50" height="50" relative="1" as="geometry">
                        <mxPoint x="530" y="-29.75" as="sourcePoint"/>
                        <mxPoint x="550.2499999999998" y="-50" as="targetPoint"/>
                    </mxGeometry>
                </mxCell>
                <mxCell id="45" value="" style="endArrow=none;html=1;shadow=0;sketch=0;entryX=1;entryY=1;entryDx=0;entryDy=0;fillColor=#fad7ac;strokeColor=#b46504;" edge="1" parent="1" target="39">
                    <mxGeometry width="50" height="50" relative="1" as="geometry">
                        <mxPoint x="550" y="40" as="sourcePoint"/>
                        <mxPoint x="490.25" y="29.75" as="targetPoint"/>
                    </mxGeometry>
                </mxCell>
                <mxCell id="46" value="" style="endArrow=none;html=1;shadow=0;sketch=0;exitX=0;exitY=0;exitDx=0;exitDy=0;fillColor=#fad7ac;strokeColor=#b46504;" edge="1" parent="1" source="39">
                    <mxGeometry width="50" height="50" relative="1" as="geometry">
                        <mxPoint x="475.25" y="-39.75000000000001" as="sourcePoint"/>
                        <mxPoint x="460" y="-50" as="targetPoint"/>
                    </mxGeometry>
                </mxCell>
                <mxCell id="47" value="" style="endArrow=none;html=1;shadow=0;sketch=0;entryX=1;entryY=0.5;entryDx=0;entryDy=0;fillColor=#fad7ac;strokeColor=#b46504;" edge="1" parent="1" target="39">
                    <mxGeometry width="50" height="50" relative="1" as="geometry">
                        <mxPoint x="570" y="-5" as="sourcePoint"/>
                        <mxPoint x="549.7487373415277" y="39.74873734152766" as="targetPoint"/>
                    </mxGeometry>
                </mxCell>
                <mxCell id="48" value="" style="endArrow=none;html=1;shadow=0;sketch=0;entryX=1;entryY=0.5;entryDx=0;entryDy=0;fillColor=#fad7ac;strokeColor=#b46504;" edge="1" parent="1">
                    <mxGeometry width="50" height="50" relative="1" as="geometry">
                        <mxPoint x="470" y="-5.239999999999995" as="sourcePoint"/>
                        <mxPoint x="439.9999999999982" y="-5.239999999999995" as="targetPoint"/>
                    </mxGeometry>
                </mxCell>
                <mxCell id="49" value="" style="endArrow=none;html=1;shadow=0;sketch=0;" edge="1" parent="1">
                    <mxGeometry width="50" height="50" relative="1" as="geometry">
                        <mxPoint x="505" y="60.25" as="sourcePoint"/>
                        <mxPoint x="504.6600000000001" y="30.25" as="targetPoint"/>
                    </mxGeometry>
                </mxCell>
                <mxCell id="50" value="" style="endArrow=none;html=1;shadow=0;sketch=0;" edge="1" parent="1">
                    <mxGeometry width="50" height="50" relative="1" as="geometry">
                        <mxPoint x="460" y="40.25" as="sourcePoint"/>
                        <mxPoint x="480.25" y="20" as="targetPoint"/>
                    </mxGeometry>
                </mxCell>
                <mxCell id="51" value="" style="endArrow=none;html=1;shadow=0;sketch=0;fillColor=#fad7ac;strokeColor=#b46504;" edge="1" parent="1">
                    <mxGeometry width="50" height="50" relative="1" as="geometry">
                        <mxPoint x="505" y="60.25" as="sourcePoint"/>
                        <mxPoint x="504.6600000000001" y="30.25" as="targetPoint"/>
                    </mxGeometry>
                </mxCell>
                <mxCell id="52" value="" style="endArrow=none;html=1;shadow=0;sketch=0;fillColor=#fad7ac;strokeColor=#b46504;" edge="1" parent="1">
                    <mxGeometry width="50" height="50" relative="1" as="geometry">
                        <mxPoint x="460" y="40.25" as="sourcePoint"/>
                        <mxPoint x="480.25" y="20" as="targetPoint"/>
                    </mxGeometry>
                </mxCell>
                <mxCell id="53" value="" style="rounded=0;whiteSpace=wrap;html=1;fillColor=#647687;strokeColor=#314354;opacity=30;fontColor=#ffffff;" vertex="1" parent="1">
                    <mxGeometry x="1110.09" y="150" width="260" height="200" as="geometry"/>
                </mxCell>
                <mxCell id="54" value="" style="shape=wire;edgeStyle=orthogonalEdgeStyle;orthogonalLoop=1;jettySize=auto;html=1;sourcePerimeterSpacing=0;targetPerimeterSpacing=0;endArrow=none;curved=0;rounded=0;strokeColor=#009900;dashed=1;fillColor=#ffff00;dashPattern=12 12;fixDash=1;startSize=6;endSize=6;" edge="1" parent="1">
                    <mxGeometry width="100" relative="1" as="geometry">
                        <mxPoint x="1380.0900000000001" y="210" as="sourcePoint"/>
                        <mxPoint x="1380.0900000000001" y="290" as="targetPoint"/>
                    </mxGeometry>
                </mxCell>
                <mxCell id="55" value="" style="endArrow=none;html=1;shape=link;width=18;shadow=0;" edge="1" parent="1">
                    <mxGeometry width="50" height="50" relative="1" as="geometry">
                        <mxPoint x="1380.0900000000001" y="210" as="sourcePoint"/>
                        <mxPoint x="1290.0900000000001" y="140" as="targetPoint"/>
                        <Array as="points">
                            <mxPoint x="1380.09" y="140"/>
                        </Array>
                    </mxGeometry>
                </mxCell>
                <mxCell id="56" value="" style="endArrow=none;html=1;shape=link;width=18;" edge="1" parent="1">
                    <mxGeometry width="50" height="50" relative="1" as="geometry">
                        <mxPoint x="1200.0900000000001" y="140" as="sourcePoint"/>
                        <mxPoint x="1380.0900000000001" y="290" as="targetPoint"/>
                        <Array as="points">
                            <mxPoint x="1100.09" y="140"/>
                            <mxPoint x="1100.09" y="360"/>
                            <mxPoint x="1380.09" y="360"/>
                        </Array>
                    </mxGeometry>
                </mxCell>
                <mxCell id="57" value="" style="shape=wire;edgeStyle=orthogonalEdgeStyle;orthogonalLoop=1;jettySize=auto;html=1;sourcePerimeterSpacing=0;targetPerimeterSpacing=0;endArrow=none;curved=0;rounded=0;strokeColor=#009900;dashed=1;fillColor=#ffff00;dashPattern=12 12;fixDash=1;startSize=6;endSize=6;" edge="1" parent="1">
                    <mxGeometry width="100" relative="1" as="geometry">
                        <mxPoint x="1290.0900000000001" y="140" as="sourcePoint"/>
                        <mxPoint x="1200.0900000000001" y="140" as="targetPoint"/>
                    </mxGeometry>
                </mxCell>
                <mxCell id="58" value="" style="endArrow=none;html=1;shape=link;width=18;shadow=0;" edge="1" parent="1">
                    <mxGeometry width="50" height="50" relative="1" as="geometry">
                        <mxPoint x="1330.0900000000001" y="130" as="sourcePoint"/>
                        <mxPoint x="1170.0900000000001" y="130" as="targetPoint"/>
                        <Array as="points">
                            <mxPoint x="1330.09" y="-50"/>
                            <mxPoint x="1170.09" y="-50"/>
                        </Array>
                    </mxGeometry>
                </mxCell>
                <mxCell id="59" value="" style="endArrow=none;html=1;shadow=0;sketch=0;" edge="1" parent="1">
                    <mxGeometry width="50" height="50" relative="1" as="geometry">
                        <mxPoint x="1200.0900000000001" y="150" as="sourcePoint"/>
                        <mxPoint x="1200.0900000000001" y="130" as="targetPoint"/>
                    </mxGeometry>
                </mxCell>
                <mxCell id="60" value="" style="endArrow=none;html=1;shadow=0;sketch=0;" edge="1" parent="1">
                    <mxGeometry width="50" height="50" relative="1" as="geometry">
                        <mxPoint x="1290.0900000000001" y="150" as="sourcePoint"/>
                        <mxPoint x="1290.0900000000001" y="130" as="targetPoint"/>
                    </mxGeometry>
                </mxCell>
                <mxCell id="61" value="" style="endArrow=none;html=1;shadow=0;sketch=0;" edge="1" parent="1">
                    <mxGeometry width="50" height="50" relative="1" as="geometry">
                        <mxPoint x="1370.0900000000001" y="210" as="sourcePoint"/>
                        <mxPoint x="1390.0900000000001" y="210" as="targetPoint"/>
                    </mxGeometry>
                </mxCell>
                <mxCell id="62" value="" style="endArrow=none;html=1;shadow=0;sketch=0;" edge="1" parent="1">
                    <mxGeometry width="50" height="50" relative="1" as="geometry">
                        <mxPoint x="1370.0900000000001" y="290" as="sourcePoint"/>
                        <mxPoint x="1390.0900000000001" y="290" as="targetPoint"/>
                    </mxGeometry>
                </mxCell>
                <mxCell id="63" value="" style="rounded=0;whiteSpace=wrap;html=1;fillColor=#647687;strokeColor=#314354;fontColor=#ffffff;opacity=30;" vertex="1" parent="1">
                    <mxGeometry x="1180.09" y="-40" width="140" height="170" as="geometry"/>
                </mxCell>
                <mxCell id="65" value="" style="group;rotation=90;" vertex="1" connectable="0" parent="1">
                    <mxGeometry x="1230.09" y="20" width="40" height="60" as="geometry"/>
                </mxCell>
                <mxCell id="66" value="" style="rounded=1;whiteSpace=wrap;html=1;rotation=90;" vertex="1" parent="65">
                    <mxGeometry x="5" y="5" width="30" height="60" as="geometry"/>
                </mxCell>
                <mxCell id="67" value="" style="ellipse;whiteSpace=wrap;html=1;aspect=fixed;rotation=90;" vertex="1" parent="65">
                    <mxGeometry y="10" width="40" height="40" as="geometry"/>
                </mxCell>
                <mxCell id="68" value="" style="ellipse;whiteSpace=wrap;html=1;aspect=fixed;fillColor=#fad7ac;strokeColor=#b46504;" vertex="1" parent="1">
                    <mxGeometry x="970" y="-40" width="70" height="70" as="geometry"/>
                </mxCell>
                <mxCell id="69" value="" style="endArrow=none;html=1;shadow=0;sketch=0;exitX=0.5;exitY=0;exitDx=0;exitDy=0;fillColor=#fad7ac;strokeColor=#b46504;" edge="1" parent="1" source="68">
                    <mxGeometry width="50" height="50" relative="1" as="geometry">
                        <mxPoint x="1039.7487373415292" y="-19.748737341529477" as="sourcePoint"/>
                        <mxPoint x="1005" y="-70" as="targetPoint"/>
                    </mxGeometry>
                </mxCell>
                <mxCell id="70" value="" style="endArrow=none;html=1;shadow=0;sketch=0;" edge="1" parent="1">
                    <mxGeometry width="50" height="50" relative="1" as="geometry">
                        <mxPoint x="1005" y="60" as="sourcePoint"/>
                        <mxPoint x="1004.6599999999999" y="30" as="targetPoint"/>
                    </mxGeometry>
                </mxCell>
                <mxCell id="71" value="" style="endArrow=none;html=1;shadow=0;sketch=0;" edge="1" parent="1">
                    <mxGeometry width="50" height="50" relative="1" as="geometry">
                        <mxPoint x="960" y="40" as="sourcePoint"/>
                        <mxPoint x="980.25" y="19.75" as="targetPoint"/>
                    </mxGeometry>
                </mxCell>
                <mxCell id="72" value="" style="endArrow=none;html=1;shadow=0;sketch=0;fillColor=#fad7ac;strokeColor=#b46504;" edge="1" parent="1">
                    <mxGeometry width="50" height="50" relative="1" as="geometry">
                        <mxPoint x="1030" y="-29.75" as="sourcePoint"/>
                        <mxPoint x="1050.25" y="-50" as="targetPoint"/>
                    </mxGeometry>
                </mxCell>
                <mxCell id="73" value="" style="endArrow=none;html=1;shadow=0;sketch=0;entryX=1;entryY=1;entryDx=0;entryDy=0;fillColor=#fad7ac;strokeColor=#b46504;" edge="1" parent="1" target="68">
                    <mxGeometry width="50" height="50" relative="1" as="geometry">
                        <mxPoint x="1050" y="40" as="sourcePoint"/>
                        <mxPoint x="990.25" y="29.75" as="targetPoint"/>
                    </mxGeometry>
                </mxCell>
                <mxCell id="74" value="" style="endArrow=none;html=1;shadow=0;sketch=0;exitX=0;exitY=0;exitDx=0;exitDy=0;fillColor=#fad7ac;strokeColor=#b46504;" edge="1" parent="1" source="68">
                    <mxGeometry width="50" height="50" relative="1" as="geometry">
                        <mxPoint x="975.25" y="-39.75000000000001" as="sourcePoint"/>
                        <mxPoint x="960" y="-50" as="targetPoint"/>
                    </mxGeometry>
                </mxCell>
                <mxCell id="75" value="" style="endArrow=none;html=1;shadow=0;sketch=0;entryX=1;entryY=0.5;entryDx=0;entryDy=0;fillColor=#fad7ac;strokeColor=#b46504;" edge="1" parent="1" target="68">
                    <mxGeometry width="50" height="50" relative="1" as="geometry">
                        <mxPoint x="1070" y="-5" as="sourcePoint"/>
                        <mxPoint x="1049.7487373415277" y="39.74873734152766" as="targetPoint"/>
                    </mxGeometry>
                </mxCell>
                <mxCell id="76" value="" style="endArrow=none;html=1;shadow=0;sketch=0;entryX=1;entryY=0.5;entryDx=0;entryDy=0;fillColor=#fad7ac;strokeColor=#b46504;" edge="1" parent="1">
                    <mxGeometry width="50" height="50" relative="1" as="geometry">
                        <mxPoint x="970" y="-5.239999999999782" as="sourcePoint"/>
                        <mxPoint x="939.9999999999982" y="-5.239999999999782" as="targetPoint"/>
                    </mxGeometry>
                </mxCell>
                <mxCell id="77" value="" style="endArrow=none;html=1;shadow=0;sketch=0;" edge="1" parent="1">
                    <mxGeometry width="50" height="50" relative="1" as="geometry">
                        <mxPoint x="1005" y="60.25" as="sourcePoint"/>
                        <mxPoint x="1004.6599999999999" y="30.25" as="targetPoint"/>
                    </mxGeometry>
                </mxCell>
                <mxCell id="78" value="" style="endArrow=none;html=1;shadow=0;sketch=0;" edge="1" parent="1">
                    <mxGeometry width="50" height="50" relative="1" as="geometry">
                        <mxPoint x="960" y="40.25" as="sourcePoint"/>
                        <mxPoint x="980.25" y="20" as="targetPoint"/>
                    </mxGeometry>
                </mxCell>
                <mxCell id="79" value="" style="endArrow=none;html=1;shadow=0;sketch=0;fillColor=#fad7ac;strokeColor=#b46504;" edge="1" parent="1">
                    <mxGeometry width="50" height="50" relative="1" as="geometry">
                        <mxPoint x="1005" y="60.25" as="sourcePoint"/>
                        <mxPoint x="1004.6599999999999" y="30.25" as="targetPoint"/>
                    </mxGeometry>
                </mxCell>
                <mxCell id="80" value="" style="endArrow=none;html=1;shadow=0;sketch=0;fillColor=#fad7ac;strokeColor=#b46504;" edge="1" parent="1">
                    <mxGeometry width="50" height="50" relative="1" as="geometry">
                        <mxPoint x="960" y="40.25" as="sourcePoint"/>
                        <mxPoint x="980.25" y="20" as="targetPoint"/>
                    </mxGeometry>
                </mxCell>
                <mxCell id="98" value="" style="rounded=0;whiteSpace=wrap;html=1;strokeWidth=2;" vertex="1" parent="1">
                    <mxGeometry x="524.9537710672525" y="420" width="60.45702861659342" height="407.27272727272725" as="geometry"/>
                </mxCell>
                <mxCell id="99" style="edgeStyle=none;sketch=0;html=1;shadow=0;endSize=7;strokeWidth=5;" edge="1" parent="1" source="96">
                    <mxGeometry relative="1" as="geometry">
                        <mxPoint x="736.5533712253296" y="667.2727272727273" as="targetPoint"/>
                    </mxGeometry>
                </mxCell>
                <mxCell id="96" value="" style="rounded=1;whiteSpace=wrap;html=1;rotation=90;opacity=30;strokeWidth=2;" vertex="1" parent="1">
                    <mxGeometry x="316.8757928260921" y="623.6363636363636" width="173.81395727270612" height="87.27272727272727" as="geometry"/>
                </mxCell>
                <mxCell id="97" value="" style="ellipse;whiteSpace=wrap;html=1;aspect=fixed;rotation=90;opacity=30;strokeWidth=2;" vertex="1" parent="1">
                    <mxGeometry x="373.55425715414833" y="498.54545454545456" width="56.6699033408962" height="56.6699033408962" as="geometry"/>
                </mxCell>
                <mxCell id="101" value="" style="rhombus;whiteSpace=wrap;html=1;" vertex="1" parent="1">
                    <mxGeometry x="509.9755422274916" y="609.0909090909091" width="30.22851430829671" height="29.09090909090909" as="geometry"/>
                </mxCell>
                <mxCell id="102" value="" style="rhombus;whiteSpace=wrap;html=1;" vertex="1" parent="1">
                    <mxGeometry x="570.2965425296976" y="609.0909090909091" width="30.22851430829671" height="29.09090909090909" as="geometry"/>
                </mxCell>
                <mxCell id="103" value="" style="shape=wire;orthogonalLoop=1;jettySize=auto;html=1;sourcePerimeterSpacing=0;targetPerimeterSpacing=0;endArrow=none;rounded=0;strokeColor=#009900;dashed=1;fillColor=#ffff00;dashPattern=12 12;fixDash=1;startSize=6;endSize=6;" edge="1" parent="1">
                    <mxGeometry width="100" relative="1" as="geometry">
                        <mxPoint x="585.4107996838459" y="623.6363636363636" as="sourcePoint"/>
                        <mxPoint x="676.0963426087361" y="725.4545454545455" as="targetPoint"/>
                    </mxGeometry>
                </mxCell>
                <mxCell id="105" value="" style="shape=wire;orthogonalLoop=1;jettySize=auto;html=1;sourcePerimeterSpacing=0;targetPerimeterSpacing=0;endArrow=none;rounded=0;strokeColor=#009900;dashed=1;fillColor=#ffff00;dashPattern=12 12;fixDash=1;startSize=6;endSize=6;exitX=0.495;exitY=0.5;exitDx=0;exitDy=0;exitPerimeter=0;" edge="1" parent="1" source="101">
                    <mxGeometry width="100" relative="1" as="geometry">
                        <mxPoint x="494.7252567589558" y="652.7272727272727" as="sourcePoint"/>
                        <mxPoint x="615.6393139921427" y="725.4545454545455" as="targetPoint"/>
                    </mxGeometry>
                </mxCell>
                <mxCell id="106" value="" style="rounded=0;whiteSpace=wrap;html=1;opacity=50;dashed=1;strokeWidth=2;" vertex="1" parent="1">
                    <mxGeometry x="615.7753423065301" y="492.72727272727275" width="60.45702861659342" height="407.27272727272725" as="geometry"/>
                </mxCell>
                <mxCell id="107" value="" style="rounded=1;whiteSpace=wrap;html=1;rotation=90;strokeWidth=2;" vertex="1" parent="1">
                    <mxGeometry x="698.7677283399587" y="623.6363636363636" width="173.81395727270612" height="87.27272727272727" as="geometry"/>
                </mxCell>
                <mxCell id="108" value="" style="ellipse;whiteSpace=wrap;html=1;aspect=fixed;rotation=90;strokeWidth=2;" vertex="1" parent="1">
                    <mxGeometry x="755.4461926680148" y="498.54545454545456" width="56.6699033408962" height="56.6699033408962" as="geometry"/>
                </mxCell>
                <mxCell id="109" value="" style="shape=or;whiteSpace=wrap;html=1;rotation=90;fillColor=#f0a30a;fontColor=#000000;strokeColor=#BD7000;" vertex="1" parent="1">
                    <mxGeometry x="933.0387142292582" y="420" width="45.342771462445064" height="78.54545454545455" as="geometry"/>
                </mxCell>
                <mxCell id="112" value="" style="endArrow=none;html=1;shadow=0;sketch=0;fillColor=#f0a30a;strokeColor=#BD7000;" edge="1" parent="1">
                    <mxGeometry width="50" height="50" relative="1" as="geometry">
                        <mxPoint x="902.8101999209614" y="492.72727272727275" as="sourcePoint"/>
                        <mxPoint x="917.9244570751098" y="478.1818181818182" as="targetPoint"/>
                    </mxGeometry>
                </mxCell>
                <mxCell id="113" value="" style="endArrow=none;html=1;shadow=0;sketch=0;fillColor=#f0a30a;strokeColor=#BD7000;" edge="1" parent="1">
                    <mxGeometry width="50" height="50" relative="1" as="geometry">
                        <mxPoint x="1008.6099999999999" y="492.72727272727275" as="sourcePoint"/>
                        <mxPoint x="993.4957428458515" y="478.1818181818182" as="targetPoint"/>
                    </mxGeometry>
                </mxCell>
                <mxCell id="114" value="" style="endArrow=none;html=1;shadow=0;sketch=0;fillColor=#f0a30a;strokeColor=#BD7000;" edge="1" parent="1">
                    <mxGeometry width="50" height="50" relative="1" as="geometry">
                        <mxPoint x="955.7100999604806" y="507.27272727272725" as="sourcePoint"/>
                        <mxPoint x="955.7100999604806" y="492.72727272727275" as="targetPoint"/>
                    </mxGeometry>
                </mxCell>
            </root>
        </mxGraphModel>
    </diagram>
</mxfile>